HIERARCHY
ROOT hip
{
  OFFSET 0 0 0
  CHANNELS 6 Xposition Yposition Zposition Zrotation Yrotation Xrotation
  JOINT abdomen
  {
    OFFSET 0 20.6881 -0.73152
    CHANNELS 3 Zrotation Xrotation Yrotation
    JOINT chest
    {
      OFFSET 0 11.7043 -0.48768
      CHANNELS 3 Zrotation Xrotation Yrotation
      JOINT neck
      {
        OFFSET 0 22.1894 -2.19456
        CHANNELS 3 Zrotation Xrotation Yrotation
        JOINT head
        {
          OFFSET -0.24384 7.07133 1.2192
          CHANNELS 3 Zrotation Xrotation Yrotation
          JOINT leftEye
          {
            OFFSET 4.14528 8.04674 8.04672
            CHANNELS 3 Zrotation Xrotation Yrotation
            End Site
            {
              OFFSET 1 0 0
            }
          }
          JOINT rightEye
          {
            OFFSET -3.6576 8.04674 8.04672
            CHANNELS 3 Zrotation Xrotation Yrotation
            End Site
            {
              OFFSET 1 0 0
            }
          }
        }
      }
      JOINT rCollar
      {
        OFFSET -2.68224 19.2634 -4.8768
        CHANNELS 3 Zrotation Xrotation Yrotation
        JOINT rShldr
        {
          OFFSET -8.77824 -1.95073 1.46304
          CHANNELS 3 Zrotation Xrotation Yrotation
          JOINT rForeArm
          {
            OFFSET -28.1742 -1.7115 0.48768
            CHANNELS 3 Zrotation Xrotation Yrotation
            JOINT rHand
            {
              OFFSET -22.5879 0.773209 7.07136
              CHANNELS 3 Zrotation Xrotation Yrotation
              JOINT rThumb1
              {
                OFFSET -1.2192 -0.487915 3.41376
                CHANNELS 3 Zrotation Xrotation Yrotation
                JOINT rThumb2
                {
                  OFFSET -3.37035 -0.52449 3.41376
                  CHANNELS 3 Zrotation Xrotation Yrotation
                  End Site
                  {
                    OFFSET -1.78271 -1.18214 1.43049
                  }
                }
              }
              JOINT rIndex1
              {
                OFFSET -7.75947 0.938293 5.60832
                CHANNELS 3 Zrotation Xrotation Yrotation
                JOINT rIndex2
                {
                  OFFSET -2.54057 -0.884171 1.56538
                  CHANNELS 3 Zrotation Xrotation Yrotation
                  End Site
                  {
                    OFFSET -1.62519 -0.234802 1.16502
                  }
                }
              }
              JOINT rMid1
              {
                OFFSET -8.24714 1.18213 3.41376
                CHANNELS 3 Zrotation Xrotation Yrotation
                JOINT rMid2
                {
                  OFFSET -3.10165 -0.590103 1.0647
                  CHANNELS 3 Zrotation Xrotation Yrotation
                  End Site
                  {
                    OFFSET -2.48547 -0.328903 0.83742
                  }
                }
              }
              JOINT rRing1
              {
                OFFSET -8.82822 0.546677 1.51678
                CHANNELS 3 Zrotation Xrotation Yrotation
                JOINT rRing2
                {
                  OFFSET -2.60934 -0.819778 -0.0198488
                  CHANNELS 3 Zrotation Xrotation Yrotation
                  End Site
                  {
                    OFFSET -2.33842 -0.294052 0.168128
                  }
                }
              }
              JOINT rPinky1
              {
                OFFSET -8.27202 -0.0477905 -0.4584
                CHANNELS 3 Zrotation Xrotation Yrotation
                JOINT rPinky2
                {
                  OFFSET -1.82734 -0.647385 -0.700984
                  CHANNELS 3 Zrotation Xrotation Yrotation
                  End Site
                  {
                    OFFSET -1.69225 -0.51767 -0.607171
                  }
                }
              }
            }
          }
        }
      }
      JOINT lCollar
      {
        OFFSET 2.68224 19.2634 -4.8768
        CHANNELS 3 Zrotation Xrotation Yrotation
        JOINT lShldr
        {
          OFFSET 8.77824 -1.95073 1.46304
          CHANNELS 3 Zrotation Xrotation Yrotation
          JOINT lForeArm
          {
            OFFSET 28.1742 -1.7115 0.48768
            CHANNELS 3 Zrotation Xrotation Yrotation
            JOINT lHand
            {
              OFFSET 22.5879 0.773209 7.07136
              CHANNELS 3 Zrotation Xrotation Yrotation
              JOINT lThumb1
              {
                OFFSET 1.2192 -0.487915 3.41376
                CHANNELS 3 Zrotation Xrotation Yrotation
                JOINT lThumb2
                {
                  OFFSET 3.37035 -0.52449 3.41376
                  CHANNELS 3 Zrotation Xrotation Yrotation
                  End Site
                  {
                    OFFSET 1.78271 -1.18214 1.43049
                  }
                }
              }
              JOINT lIndex1
              {
                OFFSET 7.75947 0.938293 5.60832
                CHANNELS 3 Zrotation Xrotation Yrotation
                JOINT lIndex2
                {
                  OFFSET 2.54057 -0.884171 1.56538
                  CHANNELS 3 Zrotation Xrotation Yrotation
                  End Site
                  {
                    OFFSET 1.62519 -0.234802 1.16502
                  }
                }
              }
              JOINT lMid1
              {
                OFFSET 8.24714 1.18213 3.41376
                CHANNELS 3 Zrotation Xrotation Yrotation
                JOINT lMid2
                {
                  OFFSET 3.10165 -0.590103 1.0647
                  CHANNELS 3 Zrotation Xrotation Yrotation
                  End Site
                  {
                    OFFSET 2.48547 -0.328903 0.83742
                  }
                }
              }
              JOINT lRing1
              {
                OFFSET 8.82822 0.546677 1.51678
                CHANNELS 3 Zrotation Xrotation Yrotation
                JOINT lRing2
                {
                  OFFSET 2.60934 -0.819778 -0.0198488
                  CHANNELS 3 Zrotation Xrotation Yrotation
                  End Site
                  {
                    OFFSET 2.33842 -0.294052 0.168128
                  }
                }
              }
              JOINT lPinky1
              {
                OFFSET 8.27202 -0.0477905 -0.4584
                CHANNELS 3 Zrotation Xrotation Yrotation
                JOINT lPinky2
                {
                  OFFSET 1.82734 -0.647385 -0.700984
                  CHANNELS 3 Zrotation Xrotation Yrotation
                  End Site
                  {
                    OFFSET 1.69225 -0.51767 -0.607171
                  }
                }
              }
            }
          }
        }
      }
    }
  }
  JOINT rButtock
  {
    OFFSET -8.77824 4.35084 1.2192
    CHANNELS 3 Zrotation Xrotation Yrotation
    JOINT rThigh
    {
      OFFSET 0 -1.70687 -2.19456
      CHANNELS 3 Zrotation Xrotation Yrotation
      JOINT rShin
      {
        OFFSET 0 -36.8199 0.73152
        CHANNELS 3 Zrotation Xrotation Yrotation
        JOINT rFoot
        {
          OFFSET 0.73152 -45.1104 -5.12064
          CHANNELS 3 Zrotation Xrotation Yrotation
          End Site
          {
            OFFSET -1.1221 -3.69964 12.103
          }
        }
      }
    }
  }
  JOINT lButtock
  {
    OFFSET 8.77824 4.35084 1.2192
    CHANNELS 3 Zrotation Xrotation Yrotation
    JOINT lThigh
    {
      OFFSET 0 -1.70687 -2.19456
      CHANNELS 3 Zrotation Xrotation Yrotation
      JOINT lShin
      {
        OFFSET 0 -36.8199 0.73152
        CHANNELS 3 Zrotation Xrotation Yrotation
        JOINT lFoot
        {
          OFFSET -0.73152 -45.1104 -5.12064
          CHANNELS 3 Zrotation Xrotation Yrotation
          End Site
          {
            OFFSET 1.1221 -3.69964 12.103
          }
        }
      }
    }
  }
}
MOTION
Frames:	4
Frame Time:	0.03333
0.18760000348265748 65.85530042648315 5.387899960987852 -14.48901081085205 -15.856189727783203 7.716001033782959 12.900788307189941 4.335414409637451 6.736653804779053 1.3906311988830566 -6.814502716064453 1.9921929836273193 -2.3842267990112305 10.674867630004883 0.15112893283367157 5.251038551330566 -18.88070297241211 1.382736325263977 -0.0 0.0 -0.0 -0.0 0.0 -0.0 -0.0 0.0 -0.0 28.889503479003906 49.77670669555664 58.449798583984375 -17.793987274169922 -10.4669189453125 33.559593200683594 -3.562091112136841 45.934295654296875 8.357056617736816 -0.0 0.0 -0.0 -0.0 0.0 -0.0 -0.0 0.0 -0.0 7.730876445770264 5.474894046783447 0.41732466220855713 -0.0 0.0 -0.0 2.9054994583129883 0.9650753736495972 0.10300876200199127 -0.0 0.0 -0.0 10.278595924377441 0.7317469120025635 0.026285571977496147 -0.0 0.0 -0.0 2.221662998199463 -0.7335850596427917 -0.20831838250160217 -0.0 0.0 -0.0 -73.63739776611328 20.236400604248047 -63.63259506225586 25.88629913330078 -23.146196365356445 -56.299102783203125 6.1123456954956055 -55.133296966552734 11.64883041381836 -0.0 0.0 -0.0 -0.0 0.0 -0.0 -0.0 0.0 -0.0 -7.730876445770264 5.474894046783447 -0.41732466220855713 -0.0 0.0 -0.0 -2.9054994583129883 0.9650753736495972 -0.10300876200199127 -0.0 0.0 -0.0 -10.278595924377441 0.7317469120025635 -0.026285571977496147 -0.0 0.0 -0.0 -2.221662998199463 -0.7335850596427917 0.20831838250160217 -0.0 0.0 -0.0 5.663922309875488 1.2591090202331543 -14.949305534362793 -0.25198712944984436 46.42509841918945 2.1054017543792725 -16.69951057434082 -14.928900718688965 -38.07120132446289 -0.0 0.0 -0.0 64.93680572509766 -60.40489196777344 59.33641052246094 3.2428243160247803 75.60209655761719 -3.6448819637298584 2.7436683177948 -3.766397476196289 12.879996299743652
0.5434000118839322 66.1126971244812 6.344699982219026 -14.158985137939453 -16.12499237060547 8.477004051208496 12.402993202209473 3.7861409187316895 6.960214614868164 1.5387824773788452 -6.807861328125 2.0514633655548096 -2.3467259407043457 10.75080680847168 0.1129024475812912 5.349697113037109 -19.48749351501465 1.351880431175232 -0.0 0.0 -0.0 -0.0 0.0 -0.0 -0.0 0.0 -0.0 27.666797637939453 49.439090728759766 59.52389907836914 -17.28609848022461 -9.940230369567871 32.43439483642578 -3.3331804275512695 44.9096565246582 8.053973197937012 -0.0 0.0 -0.0 -0.0 0.0 -0.0 -0.0 0.0 -0.0 7.730876445770264 5.474894046783447 0.41732466220855713 -0.0 0.0 -0.0 2.9054994583129883 0.9650753736495972 0.10300876200199127 -0.0 0.0 -0.0 10.278595924377441 0.7317469120025635 0.026285571977496147 -0.0 0.0 -0.0 2.221662998199463 -0.7335850596427917 -0.20831838250160217 -0.0 0.0 -0.0 -72.2638931274414 20.113801956176758 -63.9114990234375 26.079795837402344 -23.64129066467285 -57.088497161865234 6.17194128036499 -55.35795211791992 11.736485481262207 -0.0 0.0 -0.0 -0.0 0.0 -0.0 -0.0 0.0 -0.0 -7.730876445770264 5.474894046783447 -0.41732466220855713 -0.0 0.0 -0.0 -2.9054994583129883 0.9650753736495972 -0.10300876200199127 -0.0 0.0 -0.0 -10.278595924377441 0.7317469120025635 -0.026285571977496147 -0.0 0.0 -0.0 -2.221662998199463 -0.7335850596427917 0.20831838250160217 -0.0 0.0 -0.0 5.45550012588501 1.688749074935913 -13.995800018310547 -0.21459431946277618 44.76020812988281 2.055000066757202 -16.297096252441406 -15.024885177612305 -37.488800048828125 -0.0 0.0 -0.0 64.56018829345703 -59.94709014892578 60.0729866027832 3.298947811126709 75.90170288085938 -3.77254581451416 3.730985164642334 -4.322234153747559 16.59060287475586
1.005000034274417 66.4758026599884 7.357399940156029 -13.562006950378418 -16.48790740966797 9.059001922607422 11.625091552734375 3.2271554470062256 7.258090496063232 1.6634660959243774 -6.792945861816406 2.1284477710723877 -2.32975172996521 10.875406265258789 0.03801916912198067 5.434406280517578 -20.2311954498291 1.2489901781082153 -0.0 0.0 -0.0 -0.0 0.0 -0.0 -0.0 0.0 -0.0 26.414196014404297 49.094398498535156 60.55790328979492 -16.716001510620117 -9.369765281677246 31.1990966796875 -3.1033222675323486 43.72369384765625 7.724802494049072 -0.0 0.0 -0.0 -0.0 0.0 -0.0 -0.0 0.0 -0.0 7.730876445770264 5.474894046783447 0.41732466220855713 -0.0 0.0 -0.0 2.9054994583129883 0.9650753736495972 0.10300876200199127 -0.0 0.0 -0.0 10.278595924377441 0.7317469120025635 0.026285571977496147 -0.0 0.0 -0.0 2.221662998199463 -0.7335850596427917 -0.20831838250160217 -0.0 0.0 -0.0 -70.78678894042969 20.00439453125 -64.34129333496094 26.28919792175293 -24.20050811767578 -57.999996185302734 6.153674602508545 -55.39418411254883 11.73539924621582 -0.0 0.0 -0.0 -0.0 0.0 -0.0 -0.0 0.0 -0.0 -7.730876445770264 5.474894046783447 -0.41732466220855713 -0.0 0.0 -0.0 -2.9054994583129883 0.9650753736495972 -0.10300876200199127 -0.0 0.0 -0.0 -10.278595924377441 0.7317469120025635 -0.026285571977496147 -0.0 0.0 -0.0 -2.221662998199463 -0.7335850596427917 0.20831838250160217 -0.0 0.0 -0.0 5.091865062713623 2.092214584350586 -12.598094940185547 -0.1855982393026352 43.242897033691406 1.9929534196853638 -15.593689918518066 -14.809900283813477 -36.68730163574219 -0.0 0.0 -0.0 63.42949676513672 -59.474388122558594 60.35629653930664 3.3074209690093994 76.0260238647461 -3.843038558959961 4.725155353546143 -4.849986553192139 19.987594604492188
1.5742000377940712 66.82010293006897 8.43229995261936 -12.6900053024292 -16.80060386657715 9.549015998840332 10.44659423828125 2.725644111633301 7.625156402587891 1.753367304801941 -6.7722673416137695 2.223698616027832 -2.37764310836792 11.04300594329834 -0.07647877186536789 5.501099109649658 -21.11809539794922 1.0755409002304077 -0.0 0.0 -0.0 -0.0 0.0 -0.0 -0.0 0.0 -0.0 25.211292266845703 48.67979049682617 61.45301055908203 -16.129804611206055 -8.807819366455078 29.947792053222656 -2.7802047729492188 41.922664642333984 7.2490553855896 -0.0 0.0 -0.0 -0.0 0.0 -0.0 -0.0 0.0 -0.0 7.730876445770264 5.474894046783447 0.41732466220855713 -0.0 0.0 -0.0 2.9054994583129883 0.9650753736495972 0.10300876200199127 -0.0 0.0 -0.0 10.278595924377441 0.7317469120025635 0.026285571977496147 -0.0 0.0 -0.0 2.221662998199463 -0.7335850596427917 -0.20831838250160217 -0.0 0.0 -0.0 -69.1371078491211 19.861705780029297 -65.11429595947266 26.470401763916016 -24.707000732421875 -58.8141975402832 5.987066745758057 -54.77638626098633 11.49724006652832 -0.0 0.0 -0.0 -0.0 0.0 -0.0 -0.0 0.0 -0.0 -7.730876445770264 5.474894046783447 -0.41732466220855713 -0.0 0.0 -0.0 -2.9054994583129883 0.9650753736495972 -0.10300876200199127 -0.0 0.0 -0.0 -10.278595924377441 0.7317469120025635 -0.026285571977496147 -0.0 0.0 -0.0 -2.221662998199463 -0.7335850596427917 0.20831838250160217 -0.0 0.0 -0.0 4.493276596069336 2.480025291442871 -10.426006317138672 -0.1675562560558319 41.948204040527344 1.8877911567687988 -14.037611961364746 -13.168295860290527 -35.89149475097656 -0.0 0.0 -0.0 61.37940979003906 -59.08769607543945 60.070308685302734 3.222393274307251 75.77999114990234 -3.7905008792877197 5.346066951751709 -5.320894241333008 21.73600196838379
